<?xml version="1.0" standalone="no"?>
<!DOCTYPE svg PUBLIC "-//W3C//DTD SVG 20010904//EN"
 "http://www.w3.org/TR/2001/REC-SVG-20010904/DTD/svg10.dtd">
<svg version="1.0" xmlns="http://www.w3.org/2000/svg"
 width="58.000000pt" height="58.000000pt" viewBox="0 0 58.000000 58.000000"
 preserveAspectRatio="xMidYMid meet">

<g transform="translate(0.000000,58.000000) scale(0.100000,-0.100000)"
fill="#000000" stroke="none">
<path d="M209 566 c-46 -16 -100 -49 -124 -76 -17 -19 -17 -22 -3 -37 15 -15
19 -14 50 12 101 86 225 86 326 0 31 -26 35 -27 50 -12 15 15 14 19 -8 42 -13
14 -51 39 -84 55 -66 33 -142 39 -207 16z"/>
<path d="M222 460 c-95 -43 -136 -143 -97 -236 18 -42 52 -45 47 -4 -2 14 -6
44 -9 67 -6 53 22 104 71 127 97 46 205 -26 193 -127 -3 -23 -7 -53 -9 -67 -5
-41 29 -38 47 4 30 72 16 138 -43 199 -57 58 -125 71 -200 37z"/>
<path d="M21 373 c-14 -48 -14 -108 -1 -153 11 -41 65 -130 79 -130 21 0 16
43 -11 97 -27 53 -29 64 -25 131 5 63 3 73 -13 82 -16 9 -20 5 -29 -27z"/>
<path d="M538 399 c-14 -8 -16 -20 -11 -73 6 -67 -6 -122 -38 -167 -17 -24
-17 -69 1 -69 11 0 36 32 61 80 19 36 24 61 24 125 0 90 -10 119 -37 104z"/>
<path d="M241 354 c-40 -33 -42 -80 -6 -122 29 -34 25 -59 -10 -68 -34 -8 -52
-33 -75 -99 -11 -32 -20 -60 -20 -62 0 -1 74 -3 165 -3 91 0 165 2 165 3 0 2
-9 30 -20 62 -23 66 -41 91 -75 99 -35 9 -39 34 -10 68 36 42 34 89 -6 122
-17 14 -41 26 -54 26 -13 0 -37 -12 -54 -26z"/>
</g>
</svg>
