<?xml version="1.0" standalone="no"?>
<!DOCTYPE svg PUBLIC "-//W3C//DTD SVG 20010904//EN"
 "http://www.w3.org/TR/2001/REC-SVG-20010904/DTD/svg10.dtd">
<svg version="1.0" xmlns="http://www.w3.org/2000/svg"
 width="58.000000pt" height="58.000000pt" viewBox="0 0 58.000000 58.000000"
 preserveAspectRatio="xMidYMid meet">

<g transform="translate(0.000000,58.000000) scale(0.100000,-0.100000)"
fill="#000000" stroke="none">
<path d="M251 480 l-32 -100 32 -100 c19 -55 36 -100 40 -100 3 0 20 46 37
103 l32 103 -30 89 c-17 49 -34 93 -38 97 -4 4 -23 -37 -41 -92z"/>
<path d="M61 443 c0 -10 8 -39 17 -65 13 -37 28 -56 66 -83 27 -19 53 -35 57
-35 10 0 -27 108 -43 127 -6 8 -31 28 -55 44 -37 26 -43 27 -42 12z"/>
<path d="M462 422 c-45 -32 -54 -45 -71 -97 -10 -33 -17 -62 -15 -64 2 -2 28
13 57 33 48 33 56 44 72 97 10 32 16 61 13 64 -2 3 -28 -12 -56 -33z"/>
<path d="M51 216 c-48 -48 -52 -57 -49 -92 l3 -39 98 -3 c93 -3 98 -4 114 -30
24 -38 43 -52 72 -52 30 1 49 14 74 52 16 26 21 27 114 30 l98 3 3 39 c3 35
-2 44 -44 87 -27 27 -54 49 -61 49 -25 0 -26 -30 -3 -55 l23 -24 -69 -3 c-69
-3 -69 -3 -87 -40 -14 -32 -22 -38 -47 -38 -25 0 -33 6 -47 38 -18 37 -19 37
-87 42 -68 5 -68 5 -47 24 24 22 27 39 8 54 -10 9 -25 -1 -66 -42z"/>
</g>
</svg>
