<?xml version="1.0" standalone="no"?>
<!DOCTYPE svg PUBLIC "-//W3C//DTD SVG 20010904//EN"
 "http://www.w3.org/TR/2001/REC-SVG-20010904/DTD/svg10.dtd">
<svg version="1.0" xmlns="http://www.w3.org/2000/svg"
 width="58.000000pt" height="58.000000pt" viewBox="0 0 58.000000 58.000000"
 preserveAspectRatio="xMidYMid meet">

<g transform="translate(0.000000,58.000000) scale(0.100000,-0.100000)"
fill="#000000" stroke="none">
<path d="M363 523 c-11 -24 -30 -43 -50 -52 -42 -19 -41 -27 2 -46 25 -10 40
-25 50 -50 9 -19 17 -35 20 -35 3 0 14 9 25 20 11 11 32 20 46 20 31 0 77 -46
90 -90 14 -47 29 -36 28 20 -2 65 -33 113 -99 156 -31 19 -59 46 -66 64 -8 16
-17 30 -21 30 -3 0 -15 -17 -25 -37z"/>
<path d="M215 508 c-26 -24 -42 -53 -58 -103 -18 -56 -26 -70 -42 -70 -25 0
-23 29 6 103 12 29 19 56 15 60 -22 21 -79 -69 -90 -142 -4 -22 -16 -55 -28
-74 -23 -37 -19 -44 34 -61 43 -14 57 -29 79 -85 9 -22 22 -41 29 -41 7 0 24
24 39 54 22 46 33 57 71 71 40 15 68 50 42 50 -6 0 -24 11 -40 25 -51 43 -52
144 -2 208 25 32 25 37 0 37 -11 0 -36 -15 -55 -32z"/>
<path d="M431 258 c-14 -33 -26 -46 -55 -56 -40 -15 -46 -31 -16 -50 25 -15
26 -44 2 -65 -13 -12 -37 -17 -85 -17 -36 0 -68 -4 -72 -9 -16 -28 110 -51
169 -31 21 6 65 36 99 64 34 29 72 58 85 65 28 15 21 27 -24 46 -26 11 -40 25
-51 55 -9 22 -20 40 -25 40 -5 0 -17 -19 -27 -42z"/>
</g>
</svg>
